<svg width="128" height="23" fill="none" xmlns="http://www.w3.org/2000/svg"><path d="M24.02.456c-1.017-.556-2.271-.128-2.793.94l-7.48 16.068c-.174.347-.33.584-.723.584-.394 0-.55-.237-.724-.584L4.81 1.396C4.29.328 3.036-.091 2.019.456 1.002 1.013.6 2.326 1.13 3.386l7.316 14.872.833 1.688c.723 1.478 2.16 2.4 3.754 2.4 1.584 0 3.021-.922 3.754-2.4l.833-1.688 7.315-14.873c.495-1.058.1-2.372-.915-2.929zM123.36.219c-1.41-.01-2.646.876-3.232 2.08-1.905 3.87-7.499 15.375-7.517 15.412-.046.073-.156.337-.403.337-.229 0-.357-.255-.403-.346-1.859-3.824-5.512-11.36-7.434-15.266C103.629.931 102.393.21 101.056.21c-2.06 0-3.726 1.734-3.726 4.097V20.12c0 .958.55 1.852 1.4 2.135 1.383.447 2.564-.748 2.564-2.172l-.293-15.42c0-.155.193-.22.266-.082l7.636 15.41c.705 1.479 1.941 2.355 3.305 2.355s2.591-.885 3.305-2.354l7.645-15.402c.073-.146.275-.092.275.082l-.293 15.502c0 1.223.915 2.218 2.042 2.172 1.089-.037 1.922-1.077 1.922-2.272V4.307c0-2.382-1.675-4.079-3.744-4.088zM94.794 19.134 86.379 2.582c-.732-1.469-2.16-2.39-3.744-2.39-.989 0-1.923.355-2.665.985-.439.374-.814.849-1.09 1.396l-8.377 16.47-.027.055-.01.027a2.297 2.297 0 0 0 .166 2.327c.009.018.027.036.036.054.01.019.028.037.046.055a1.9 1.9 0 0 0 .55.493 1.986 1.986 0 0 0 2.178-.073c.01-.01.019-.01.028-.018.046-.037.091-.064.128-.1a.523.523 0 0 0 .1-.101c.02-.018.028-.027.047-.046.146-.155.283-.328.384-.538l.311-.657 1.75-3.659a.273.273 0 0 1 .237-.155h7.737c1.034 0 1.877-.885 1.877-1.97 0-1.087-.843-1.972-1.877-1.972h-5.778c-.128 0-.2-.128-.155-.246l.43-.913 3.159-6.35.01-.028c.008-.009.008-.027.017-.036.055-.11.22-.557.531-.648a.818.818 0 0 1 .467-.01c.32.101.467.494.605.776l7.672 15.877c.376.73 1.09 1.15 1.831 1.15.238 0 .476-.046.705-.128.019-.01.028-.01.046-.018l.165-.082c.018-.01.046-.019.064-.028.01-.009.018-.018.037-.018a.202.202 0 0 0 .045-.027c.028-.019.046-.037.074-.046.018-.018.036-.027.055-.045.027-.028.064-.046.091-.073.037-.028.064-.055.1-.092l.028-.027c.678-.639.88-1.716.43-2.619zM29.669 13.678h14.164c.265 0 2.463-.183 2.463-2.647C46.296 4.945 41.58 0 35.785 0c-5.796 0-10.511 4.945-10.511 11.031 0 .137.01.52.01.585-.01 6.943 4.467 10.684 10.4 11.031.284.018.559.027.833.027 2.28 0 4.203-.593 6.29-1.907.21-.127 1.053-.684 1.905-1.788.677-.876.741-2.18 0-2.856-1.063-.976-2.161-.447-3.14.374-1.539 1.305-2.72 2.318-5.787 2.318-2.884 0-5.613-1.643-6.263-4.918-.027-.11.037-.22.147-.22zm-.165-4.07c.394-3.184 2.591-6.013 6.262-6.013 3.663 0 5.988 2.765 6.355 6.013.009.119-.065.228-.174.228h-12.26c-.119 0-.192-.11-.183-.228zM52.97 13.678h14.164c.266 0 2.463-.183 2.463-2.647C69.597 4.945 64.882 0 59.087 0 53.29 0 48.574 4.945 48.574 11.031c0 .137.01.52.01.585-.01 6.943 4.468 10.684 10.4 11.031.284.018.559.027.834.027 2.28 0 4.202-.593 6.29-1.907.21-.127 1.053-.684 1.904-1.788.678-.876.742-2.18 0-2.856-1.062-.976-2.16-.447-3.14.374-1.539 1.305-2.72 2.318-5.787 2.318-2.884 0-5.612-1.643-6.262-4.918-.037-.11.036-.22.146-.22zm-.165-4.07c.394-3.184 2.591-6.013 6.263-6.013 3.662 0 5.988 2.765 6.354 6.013.01.119-.064.228-.174.228h-12.26c-.119 0-.201-.11-.183-.228z" fill="#fff"/></svg>